<svg width="20" height="20" viewBox="0 0 20 20" fill="none" xmlns="http://www.w3.org/2000/svg">
<path d="M11.6667 10.54L13.6417 8.56504C13.8867 8.32087 14.0084 8.19837 14.0734 8.06671C14.1984 7.81671 14.1984 7.52254 14.0734 7.27171C14.0084 7.14004 13.8867 7.01837 13.6425 6.77421C13.3984 6.53004 13.2759 6.40837 13.145 6.34337C13.0216 6.28188 12.8855 6.24987 12.7475 6.24987C12.6096 6.24987 12.4735 6.28188 12.35 6.34337C12.2184 6.40837 12.0959 6.53004 11.8517 6.77421L9.87672 8.75004M11.6667 10.54L4.81505 17.3925C4.57088 17.6367 4.44838 17.7584 4.31672 17.8234C4.06672 17.9484 3.77255 17.9484 3.52172 17.8234C3.39005 17.7584 3.26838 17.6367 3.02422 17.3925C2.78005 17.1484 2.65838 17.0259 2.59338 16.895C2.53189 16.7716 2.49988 16.6355 2.49988 16.4975C2.49988 16.3596 2.53189 16.2235 2.59338 16.1C2.65838 15.9684 2.78005 15.8459 3.02422 15.6017L9.87672 8.75004M11.6667 10.54L9.87672 8.75004M16.25 2.08337L16.1584 2.33254C16.0367 2.65837 15.9767 2.82171 15.8584 2.94087C15.7384 3.06004 15.575 3.12087 15.2492 3.24087L15 3.33337L15.2492 3.42504C15.575 3.54587 15.7384 3.60671 15.8575 3.72504C15.9767 3.84504 16.0367 4.00837 16.1575 4.33421L16.25 4.58337L16.3417 4.33421C16.4634 4.00837 16.5234 3.84504 16.6417 3.72587C16.7617 3.60671 16.925 3.54587 17.2509 3.42587L17.5 3.33337L17.2509 3.24171C16.925 3.12087 16.7617 3.06004 16.6425 2.94171C16.5234 2.82171 16.4634 2.65837 16.3425 2.33254L16.25 2.08337ZM16.25 10.4167L16.1584 10.6659C16.0367 10.9917 15.9767 11.155 15.8584 11.2742C15.7384 11.3934 15.575 11.4542 15.2492 11.5742L15 11.6667L15.2492 11.7584C15.575 11.88 15.7384 11.94 15.8575 12.0584C15.9767 12.1784 16.0367 12.3417 16.1575 12.6675L16.25 12.9167L16.3417 12.6675C16.4634 12.3417 16.5234 12.1784 16.6417 12.0592C16.7617 11.94 16.925 11.8792 17.2509 11.7592L17.5 11.6667L17.2509 11.575C16.925 11.4534 16.7617 11.3934 16.6425 11.275C16.5234 11.155 16.4634 10.9917 16.3425 10.6659L16.25 10.4167ZM8.75005 2.08337L8.65838 2.33254C8.53672 2.65837 8.47672 2.82171 8.35838 2.94087C8.23838 3.06004 8.07505 3.12087 7.74922 3.24087L7.50005 3.33337L7.74922 3.42504C8.07505 3.54587 8.23838 3.60671 8.35755 3.72504C8.47672 3.84504 8.53755 4.00837 8.65755 4.33421L8.75005 4.58337L8.84172 4.33421C8.96338 4.00837 9.02338 3.84504 9.14172 3.72587C9.26172 3.60671 9.42505 3.54587 9.75088 3.42587L10 3.33337L9.75088 3.24171C9.42505 3.12087 9.26172 3.06004 9.14255 2.94171C9.02338 2.82171 8.96255 2.65837 8.84255 2.33254L8.75005 2.08337Z" stroke="black" stroke-width="1.5" stroke-linecap="round" stroke-linejoin="round"/>
</svg>
