<svg width="20" height="20" viewBox="0 0 20 20" fill="none" xmlns="http://www.w3.org/2000/svg">
<g clip-path="url(#clip0_11_81)">
<path d="M5.83337 15C4.91254 15 4.17504 15.7458 4.17504 16.6666C4.17504 17.5875 4.91254 18.3333 5.83337 18.3333C6.75421 18.3333 7.50004 17.5875 7.50004 16.6666C7.50004 15.7458 6.75421 15 5.83337 15ZM0.833374 1.66663V3.33329H2.50004L5.49587 9.65413L4.37087 11.6958C4.24171 11.9375 4.16671 12.2083 4.16671 12.5C4.16671 13.4208 4.91254 14.1666 5.83337 14.1666H15.8334V12.5H6.18754C6.07087 12.5 5.97921 12.4083 5.97921 12.2916C5.97921 12.2541 5.98754 12.2208 6.00421 12.1916L6.75004 10.8333H12.9584C13.5834 10.8333 14.1292 10.4875 14.4167 9.97496L17.3959 4.56663C17.4625 4.44996 17.5 4.31246 17.5 4.16663C17.5 3.94561 17.4122 3.73365 17.256 3.57737C17.0997 3.42109 16.8877 3.33329 16.6667 3.33329H4.34587L3.55421 1.66663H0.833374ZM14.1667 15C13.2459 15 12.5084 15.7458 12.5084 16.6666C12.5084 17.5875 13.2459 18.3333 14.1667 18.3333C15.0875 18.3333 15.8334 17.5875 15.8334 16.6666C15.8334 15.7458 15.0875 15 14.1667 15Z" fill="black"/>
</g>
<defs>
<clipPath id="clip0_11_81">
<rect width="20" height="20" fill="white"/>
</clipPath>
</defs>
</svg>
