<svg width="20" height="20" viewBox="0 0 20 20" fill="none" xmlns="http://www.w3.org/2000/svg">
<path d="M17.5 9.70479V17.5C17.5 17.9602 17.1269 18.3333 16.6666 18.3333H3.33329C2.87306 18.3333 2.49996 17.9602 2.49996 17.5V9.70479C1.98133 9.11721 1.66663 8.34529 1.66663 7.49996V2.49996C1.66663 2.03973 2.03973 1.66663 2.49996 1.66663H17.5C17.9602 1.66663 18.3333 2.03973 18.3333 2.49996V7.49996C18.3333 8.34529 18.0186 9.11721 17.5 9.70479ZM11.6666 7.49996C11.6666 7.03973 12.0397 6.66663 12.5 6.66663C12.9602 6.66663 13.3333 7.03973 13.3333 7.49996C13.3333 8.42046 14.0795 9.16663 15 9.16663C15.9205 9.16663 16.6666 8.42046 16.6666 7.49996V3.33329H3.33329V7.49996C3.33329 8.42046 4.07948 9.16663 4.99996 9.16663C5.92043 9.16663 6.66663 8.42046 6.66663 7.49996C6.66663 7.03973 7.03973 6.66663 7.49996 6.66663C7.96019 6.66663 8.33329 7.03973 8.33329 7.49996C8.33329 8.42046 9.07946 9.16663 9.99996 9.16663C10.9205 9.16663 11.6666 8.42046 11.6666 7.49996Z" fill="black"/>
</svg>
