<svg width="20" height="20" viewBox="0 0 20 20" fill="none" xmlns="http://www.w3.org/2000/svg">
<path d="M4.99996 15L2.37496 17.625C2.23607 17.7638 2.08329 17.7986 1.91663 17.7291C1.74996 17.6597 1.66663 17.5277 1.66663 17.3333V3.33329C1.66663 2.87496 1.82996 2.48274 2.15663 2.15663C2.48329 1.83051 2.87551 1.66718 3.33329 1.66663H16.6666C17.125 1.66663 17.5175 1.82996 17.8441 2.15663C18.1708 2.48329 18.3338 2.87551 18.3333 3.33329V13.3333C18.3333 13.7916 18.1702 14.1841 17.8441 14.5108C17.518 14.8375 17.1255 15.0005 16.6666 15H4.99996ZM9.99996 10.3958L11.5833 11.3541C11.7361 11.4513 11.8888 11.448 12.0416 11.3441C12.1944 11.2402 12.25 11.0977 12.2083 10.9166L11.7916 9.10413L13.2083 7.87496C13.3472 7.74996 13.3888 7.60079 13.3333 7.42746C13.2777 7.25413 13.1527 7.16024 12.9583 7.14579L11.1041 6.99996L10.375 5.29163C10.3055 5.12496 10.1805 5.04163 9.99996 5.04163C9.8194 5.04163 9.6944 5.12496 9.62496 5.29163L8.89579 6.99996L7.04163 7.14579C6.84718 7.15968 6.72218 7.25357 6.66663 7.42746C6.61107 7.60135 6.65274 7.75051 6.79163 7.87496L8.20829 9.10413L7.79163 10.9166C7.74996 11.0972 7.80551 11.2397 7.95829 11.3441C8.11107 11.4486 8.26385 11.4519 8.41663 11.3541L9.99996 10.3958Z" fill="black"/>
</svg>
