<svg width="20" height="20" viewBox="0 0 20 20" fill="none" xmlns="http://www.w3.org/2000/svg">
<path d="M4.16667 17.5C3.70833 17.5 3.31611 17.3369 2.99 17.0108C2.66389 16.6847 2.50056 16.2922 2.5 15.8333V4.16667C2.5 3.70833 2.66333 3.31611 2.99 2.99C3.31667 2.66389 3.70889 2.50056 4.16667 2.5H15.8333C16.2917 2.5 16.6842 2.66333 17.0108 2.99C17.3375 3.31667 17.5006 3.70889 17.5 4.16667V15.8333C17.5 16.2917 17.3369 16.6842 17.0108 17.0108C16.6847 17.3375 16.2922 17.5006 15.8333 17.5H4.16667ZM5.83333 14.1667H14.1667C14.3333 14.1667 14.4583 14.0903 14.5417 13.9375C14.625 13.7847 14.6111 13.6389 14.5 13.5L12.2083 10.4375C12.125 10.3264 12.0139 10.2708 11.875 10.2708C11.7361 10.2708 11.625 10.3264 11.5417 10.4375L9.375 13.3333L7.83333 11.2708C7.75 11.1597 7.63889 11.1042 7.5 11.1042C7.36111 11.1042 7.25 11.1597 7.16667 11.2708L5.5 13.5C5.38889 13.6389 5.375 13.7847 5.45833 13.9375C5.54167 14.0903 5.66667 14.1667 5.83333 14.1667Z" fill="black"/>
</svg>
