<svg width="20" height="20" viewBox="0 0 20 20" fill="none" xmlns="http://www.w3.org/2000/svg">
<path d="M17.5 15.8333V16.6666H2.5V15.8333L4.16667 14.1666V9.16663C4.16667 6.58329 5.85833 4.30829 8.33333 3.57496V3.33329C8.33333 2.89127 8.50893 2.46734 8.82149 2.15478C9.13405 1.84222 9.55797 1.66663 10 1.66663C10.442 1.66663 10.866 1.84222 11.1785 2.15478C11.4911 2.46734 11.6667 2.89127 11.6667 3.33329V3.57496C14.1417 4.30829 15.8333 6.58329 15.8333 9.16663V14.1666L17.5 15.8333ZM11.6667 17.5C11.6667 17.942 11.4911 18.3659 11.1785 18.6785C10.866 18.991 10.442 19.1666 10 19.1666C9.55797 19.1666 9.13405 18.991 8.82149 18.6785C8.50893 18.3659 8.33333 17.942 8.33333 17.5" fill="black"/>
</svg>
