<svg width="20" height="20" viewBox="0 0 20 20" fill="none" xmlns="http://www.w3.org/2000/svg">
<path fill-rule="evenodd" clip-rule="evenodd" d="M12.2929 2.21423H2.22147C1.65315 2.21423 1.10811 2.44 0.706242 2.84186C0.304378 3.24373 0.0786133 3.78877 0.0786133 4.35709V7.21423C0.0788861 7.37212 0.131465 7.52547 0.228132 7.65031C0.324798 7.77515 0.460104 7.86445 0.612899 7.90423C1.07517 8.02659 1.484 8.29841 1.77568 8.67734C2.06737 9.05627 2.22553 9.52104 2.22553 9.99923C2.22553 10.4774 2.06737 10.9422 1.77568 11.3211C1.484 11.7001 1.07517 11.9719 0.612899 12.0942C0.460133 12.1344 0.324972 12.224 0.228559 12.3491C0.132145 12.4742 0.0799162 12.6277 0.0800419 12.7857V15.6414C0.0800419 16.2097 0.305807 16.7547 0.70767 17.1566C1.10953 17.5585 1.65458 17.7842 2.2229 17.7842H12.2943V15.3342C12.2943 15.0974 12.3884 14.8703 12.5558 14.7029C12.7233 14.5354 12.9504 14.4414 13.1872 14.4414C13.424 14.4414 13.6511 14.5354 13.8185 14.7029C13.986 14.8703 14.08 15.0974 14.08 15.3342V17.7842H17.7772C18.3455 17.7842 18.8906 17.5585 19.2924 17.1566C19.6943 16.7547 19.92 16.2097 19.92 15.6414V12.7799C19.9202 12.623 19.8686 12.4704 19.7734 12.3457C19.6781 12.2209 19.5444 12.1311 19.3929 12.0899C18.9349 11.9644 18.5308 11.6918 18.2428 11.3142C17.9548 10.9366 17.7988 10.4749 17.7988 9.99995C17.7988 9.52504 17.9548 9.06329 18.2428 8.68568C18.5308 8.30808 18.9349 8.03553 19.3929 7.90995C19.5446 7.86909 19.6787 7.77934 19.7742 7.6546C19.8698 7.52986 19.9215 7.37708 19.9215 7.21995V4.35852C19.9215 3.7902 19.6957 3.24515 19.2938 2.84329C18.892 2.44143 18.3469 2.21566 17.7786 2.21566H14.0786V4.67709C14.0786 4.91389 13.9845 5.14099 13.8171 5.30844C13.6497 5.47588 13.4226 5.56995 13.1858 5.56995C12.949 5.56995 12.7219 5.47588 12.5544 5.30844C12.387 5.14099 12.2929 4.91389 12.2929 4.67709V2.21423ZM13.1858 7.66566C13.68 7.66566 14.0786 8.06566 14.0786 8.55852V11.4385C14.0786 11.6753 13.9845 11.9024 13.8171 12.0699C13.6497 12.2373 13.4226 12.3314 13.1858 12.3314C12.949 12.3314 12.7219 12.2373 12.5544 12.0699C12.387 11.9024 12.2929 11.6753 12.2929 11.4385V8.55852C12.2929 8.06566 12.6929 7.66566 13.1858 7.66566Z" fill="black"/>
</svg>
