<svg width="20" height="20" viewBox="0 0 20 20" fill="none" xmlns="http://www.w3.org/2000/svg">
<path d="M9.99996 1.66663C5.39996 1.66663 1.66663 5.39996 1.66663 9.99996C1.66663 14.6 5.39996 18.3333 9.99996 18.3333C14.6 18.3333 18.3333 14.6 18.3333 9.99996C18.3333 5.39996 14.6 1.66663 9.99996 1.66663ZM9.99996 4.16663C11.3833 4.16663 12.5 5.28329 12.5 6.66663C12.5 8.04996 11.3833 9.16663 9.99996 9.16663C8.61663 9.16663 7.49996 8.04996 7.49996 6.66663C7.49996 5.28329 8.61663 4.16663 9.99996 4.16663ZM9.99996 16C7.91663 16 6.07496 14.9333 4.99996 13.3166C5.02496 11.6583 8.33329 10.75 9.99996 10.75C11.6583 10.75 14.975 11.6583 15 13.3166C13.925 14.9333 12.0833 16 9.99996 16Z" fill="black"/>
</svg>
