<svg width="20" height="20" viewBox="0 0 20 20" fill="none" xmlns="http://www.w3.org/2000/svg">
<path fill-rule="evenodd" clip-rule="evenodd" d="M8.18176 17.5001V16.0228C8.18176 14.391 9.50456 13.0682 11.1363 13.0682H14.0909C15.7226 13.0682 17.0454 14.391 17.0454 16.0228V17.5001" fill="black"/>
<path d="M8.18176 17.5001V16.0228C8.18176 14.391 9.50456 13.0682 11.1363 13.0682H14.0909C15.7226 13.0682 17.0454 14.391 17.0454 16.0228V17.5001H8.18176Z" stroke="black" stroke-width="1.4625" stroke-linecap="round" stroke-linejoin="round"/>
<circle cx="12.7273" cy="6.36363" r="2.72727" fill="black" stroke="black" stroke-width="1.65" stroke-linecap="round" stroke-linejoin="round"/>
<ellipse cx="7.4974" cy="5.83333" rx="3.33333" ry="3.33333" fill="black" stroke="black" stroke-width="1.65" stroke-linecap="round" stroke-linejoin="round"/>
<path fill-rule="evenodd" clip-rule="evenodd" d="M2.5 17.5V15.8333C2.5 13.9924 3.99238 12.5 5.83333 12.5H9.16667C11.0076 12.5 12.5 13.9924 12.5 15.8333V17.5" fill="black"/>
<path d="M2.5 17.5V15.8333C2.5 13.9924 3.99238 12.5 5.83333 12.5H9.16667C11.0076 12.5 12.5 13.9924 12.5 15.8333V17.5H2.5Z" stroke="black" stroke-width="1.65" stroke-linecap="round" stroke-linejoin="round"/>
</svg>
